0
SECTION
2
HEADER
9
$INSUNITS
70
4
9
$ACADVER
1
AC1014
9
$HANDSEED
5
FFFF
0
ENDSEC
0
SECTION
2
TABLES
0
TABLE
2
VPORT
5
8
100
AcDbSymbolTable
0
ENDTAB
0
TABLE
2
LTYPE
5
5
100
AcDbSymbolTable
0
LTYPE
5
14
100
AcDbSymbolTableRecord
100
AcDbLinetypeTableRecord
2
BYBLOCK
70
0
0
LTYPE
5
15
100
AcDbSymbolTableRecord
100
AcDbLinetypeTableRecord
2
BYLAYER
70
0
0
LTYPE
5
16
100
AcDbSymbolTableRecord
100
AcDbLinetypeTableRecord
2
DASHED
70
0
3
Dashed __ __ __ __ __ __ __ __ __ __ __ __ __ _
72
65
73
2
40
0.75
49
0.5
74
0
49
-0.25
74
0
0
ENDTAB
0
TABLE
2
LAYER
5
2
100
AcDbSymbolTable
70
2
0
LAYER
5
50
100
AcDbSymbolTableRecord
100
AcDbLayerTableRecord
2
0
70
0
62
7
6
CONTINUOUS
0
ENDTAB
0
TABLE
2
STYLE
5
3
100
AcDbSymbolTable
70
1
0
STYLE
5
11
100
AcDbSymbolTableRecord
100
AcDbTextStyleTableRecord
2
STANDARD
70
0
0
ENDTAB
0
TABLE
2
VIEW
5
6
100
AcDbSymbolTable
70
0
0
ENDTAB
0
TABLE
2
UCS
5
7
100
AcDbSymbolTable
70
0
0
ENDTAB
0
TABLE
2
APPID
5
9
100
AcDbSymbolTable
70
2
0
APPID
5
12
100
AcDbSymbolTableRecord
100
AcDbRegAppTableRecord
2
ACAD
70
0
0
ENDTAB
0
TABLE
2
DIMSTYLE
5
A
100
AcDbSymbolTable
70
1
0
ENDTAB
0
TABLE
2
BLOCK_RECORD
5
1
100
AcDbSymbolTable
70
1
0
BLOCK_RECORD
5
1F
100
AcDbSymbolTableRecord
100
AcDbBlockTableRecord
2
*MODEL_SPACE
0
BLOCK_RECORD
5
1B
100
AcDbSymbolTableRecord
100
AcDbBlockTableRecord
2
*PAPER_SPACE
0
ENDTAB
0
ENDSEC
0
SECTION
2
BLOCKS
0
BLOCK
5
20
100
AcDbEntity
100
AcDbBlockBegin
2
*MODEL_SPACE
0
ENDBLK
5
21
100
AcDbEntity
100
AcDbBlockEnd
0
BLOCK
5
1C
100
AcDbEntity
100
AcDbBlockBegin
2
*PAPER_SPACE
0
ENDBLK
5
1D
100
AcDbEntity
100
AcDbBlockEnd
0
ENDSEC
0
SECTION
2
ENTITIES
0
LINE
5
100
100
AcDbEntity
8
0
100
AcDbLine
10
100.06228009458638
20
0
30
0
11
100.06228009458638
21
40
31
0
0
LINE
5
101
100
AcDbEntity
8
0
100
AcDbLine
10
179.56228009458638
20
0
30
0
11
179.56228009458638
21
40
31
0
0
LINE
5
102
100
AcDbEntity
8
0
100
AcDbLine
10
295.8917571523429
20
0
30
0
11
295.8917571523429
21
40
31
0
0
LINE
5
103
100
AcDbEntity
8
0
100
AcDbLine
10
334.14175715234296
20
0
30
0
11
334.14175715234296
21
40
31
0
0
LINE
5
104
100
AcDbEntity
8
0
100
AcDbLine
10
-58.336309447890159
20
58.336309447890173
30
0
11
-32.703688629877817
21
32.703688629877831
31
0
0
LINE
5
105
100
AcDbEntity
8
0
100
AcDbLine
10
-32.703688629877817
20
32.703688629877831
30
0
11
-30.582368286318179
21
34.82500897343747
31
0
0
LINE
5
106
100
AcDbEntity
8
0
100
AcDbLine
10
-30.582368286318179
20
34.82500897343747
30
0
11
-23.511300474452703
21
27.753941161571998
31
0
0
LINE
5
107
100
AcDbEntity
8
0
100
AcDbLine
10
-23.511300474452703
20
27.753941161571998
30
0
11
-25.632620818012349
21
25.632620818012349
31
0
0
LINE
5
108
100
AcDbEntity
8
0
100
AcDbLine
10
0
20
0
30
0
11
25.632620818012349
21
25.632620818012345
31
0
6
DASHED
0
LINE
5
109
100
AcDbEntity
8
0
100
AcDbLine
10
25.632620818012349
20
25.632620818012345
30
0
11
23.511300474452707
21
27.753941161571987
31
0
0
LINE
5
110
100
AcDbEntity
8
0
100
AcDbLine
10
30.582368286318182
20
34.825008973437463
30
0
11
32.703688629877817
21
32.703688629877824
31
0
0
LINE
5
111
100
AcDbEntity
8
0
100
AcDbLine
10
100.06228009458638
20
40
30
0
11
136.31228009458638
21
40
31
0
0
LINE
5
112
100
AcDbEntity
8
0
100
AcDbLine
10
136.31228009458638
20
40
30
0
11
136.31228009458638
21
43
31
0
0
LINE
5
113
100
AcDbEntity
8
0
100
AcDbLine
10
136.31228009458638
20
43
30
0
11
146.31228009458638
21
43
31
0
0
LINE
5
114
100
AcDbEntity
8
0
100
AcDbLine
10
146.31228009458638
20
43
30
0
11
146.31228009458638
21
40
31
0
0
LINE
5
115
100
AcDbEntity
8
0
100
AcDbLine
10
146.31228009458638
20
40
30
0
11
179.56228009458638
21
40
31
0
0
LINE
5
116
100
AcDbEntity
8
0
100
AcDbLine
10
136.31228009458638
20
0
30
0
11
136.31228009458638
21
-3.0000000000000004
31
0
0
LINE
5
117
100
AcDbEntity
8
0
100
AcDbLine
10
136.31228009458638
20
-3.0000000000000004
30
0
11
146.31228009458638
21
-3.0000000000000004
31
0
0
LINE
5
118
100
AcDbEntity
8
0
100
AcDbLine
10
146.31228009458638
20
-3.0000000000000004
30
0
11
146.31228009458638
21
0
31
0
0
LINE
5
119
100
AcDbEntity
8
0
100
AcDbLine
10
146.31228009458638
20
0
30
0
11
179.56228009458638
21
0
31
0
0
LINE
5
120
100
AcDbEntity
8
0
100
AcDbLine
10
-25.632620818012349
20
25.632620818012349
30
0
11
0
21
0
31
0
0
LINE
5
121
100
AcDbEntity
8
0
100
AcDbLine
10
295.8917571523429
20
40
30
0
11
311.5167571523429
21
40
31
0
0
LINE
5
122
100
AcDbEntity
8
0
100
AcDbLine
10
311.5167571523429
20
40
30
0
11
311.5167571523429
21
43
31
0
0
LINE
5
123
100
AcDbEntity
8
0
100
AcDbLine
10
311.5167571523429
20
43
30
0
11
321.5167571523429
21
43
31
0
0
LINE
5
124
100
AcDbEntity
8
0
100
AcDbLine
10
321.5167571523429
20
43
30
0
11
321.5167571523429
21
40
31
0
0
LINE
5
125
100
AcDbEntity
8
0
100
AcDbLine
10
321.5167571523429
20
40
30
0
11
334.14175715234296
21
40
31
0
0
LINE
5
126
100
AcDbEntity
8
0
100
AcDbLine
10
295.8917571523429
20
0
30
0
11
311.5167571523429
21
0
31
0
0
LINE
5
127
100
AcDbEntity
8
0
100
AcDbLine
10
321.5167571523429
20
-2.9999999999999982
30
0
11
321.5167571523429
21
0
31
0
0
LINE
5
128
100
AcDbEntity
8
0
100
AcDbLine
10
311.5167571523429
20
0
30
0
11
311.5167571523429
21
-2.9999999999999982
31
0
0
LINE
5
129
100
AcDbEntity
8
0
100
AcDbLine
10
311.5167571523429
20
-2.9999999999999982
30
0
11
321.5167571523429
21
-2.9999999999999982
31
0
0
LINE
5
130
100
AcDbEntity
8
0
100
AcDbLine
10
321.5167571523429
20
0
30
0
11
334.14175715234296
21
0
31
0
0
LWPOLYLINE
5
131
100
AcDbEntity
8
0
100
AcDbPolyline
90
12
70
1
43
0.0
10
226.31228009458638
20
-3.0000000000000004
10
236.31228009458638
20
-3.0000000000000004
10
236.31228009458638
20
0
10
269.56228009458636
20
0
10
269.56228009458636
20
40
10
236.31228009458638
20
40
10
236.31228009458638
20
43
10
226.31228009458638
20
43
10
226.31228009458638
20
40
10
190.06228009458638
20
40
10
190.06228009458638
20
0
10
226.31228009458638
20
0
0
LINE
5
132
100
AcDbEntity
8
0
100
AcDbLine
10
371.5167571523429
20
0
30
0
11
384.14175715234296
21
0
31
0
0
LINE
5
133
100
AcDbEntity
8
0
100
AcDbLine
10
371.5167571523429
20
-2.9999999999999982
30
0
11
371.5167571523429
21
0
31
0
0
LINE
5
134
100
AcDbEntity
8
0
100
AcDbLine
10
371.5167571523429
20
40
30
0
11
384.14175715234296
21
40
31
0
0
LINE
5
135
100
AcDbEntity
8
0
100
AcDbLine
10
361.5167571523429
20
0
30
0
11
361.5167571523429
21
-2.9999999999999982
31
0
0
LINE
5
136
100
AcDbEntity
8
0
100
AcDbLine
10
384.14175715234296
20
0
30
0
11
384.14175715234296
21
40
31
0
0
LINE
5
137
100
AcDbEntity
8
0
100
AcDbLine
10
361.5167571523429
20
40
30
0
11
361.5167571523429
21
43
31
0
0
LINE
5
138
100
AcDbEntity
8
0
100
AcDbLine
10
371.5167571523429
20
43
30
0
11
371.5167571523429
21
40
31
0
0
LINE
5
139
100
AcDbEntity
8
0
100
AcDbLine
10
361.5167571523429
20
43
30
0
11
371.5167571523429
21
43
31
0
0
LINE
5
140
100
AcDbEntity
8
0
100
AcDbLine
10
345.8917571523429
20
0
30
0
11
345.8917571523429
21
40
31
0
0
LINE
5
141
100
AcDbEntity
8
0
100
AcDbLine
10
345.8917571523429
20
40
30
0
11
361.5167571523429
21
40
31
0
0
LINE
5
142
100
AcDbEntity
8
0
100
AcDbLine
10
361.5167571523429
20
-2.9999999999999982
30
0
11
371.5167571523429
21
-2.9999999999999982
31
0
0
LINE
5
143
100
AcDbEntity
8
0
100
AcDbLine
10
345.8917571523429
20
0
30
0
11
361.5167571523429
21
0
31
0
0
LINE
5
144
100
AcDbEntity
8
0
100
AcDbLine
10
311.5167571523429
20
-60
30
0
11
311.5167571523429
21
-63
31
0
0
LINE
5
145
100
AcDbEntity
8
0
100
AcDbLine
10
345.8917571523429
20
-60
30
0
11
345.8917571523429
21
-20
31
0
0
LINE
5
146
100
AcDbEntity
8
0
100
AcDbLine
10
361.5167571523429
20
-20
30
0
11
361.5167571523429
21
-17
31
0
0
LINE
5
147
100
AcDbEntity
8
0
100
AcDbLine
10
384.14175715234296
20
-60
30
0
11
384.14175715234296
21
-20
31
0
0
LINE
5
148
100
AcDbEntity
8
0
100
AcDbLine
10
361.5167571523429
20
-63
30
0
11
371.5167571523429
21
-63
31
0
0
LINE
5
149
100
AcDbEntity
8
0
100
AcDbLine
10
371.5167571523429
20
-17
30
0
11
371.5167571523429
21
-20
31
0
0
LINE
5
150
100
AcDbEntity
8
0
100
AcDbLine
10
345.8917571523429
20
-20
30
0
11
361.5167571523429
21
-20
31
0
0
LINE
5
151
100
AcDbEntity
8
0
100
AcDbLine
10
361.5167571523429
20
-60
30
0
11
361.5167571523429
21
-63
31
0
0
LINE
5
152
100
AcDbEntity
8
0
100
AcDbLine
10
371.5167571523429
20
-63
30
0
11
371.5167571523429
21
-60
31
0
0
LINE
5
153
100
AcDbEntity
8
0
100
AcDbLine
10
371.5167571523429
20
-60
30
0
11
384.14175715234296
21
-60
31
0
0
LINE
5
154
100
AcDbEntity
8
0
100
AcDbLine
10
371.5167571523429
20
-20
30
0
11
384.14175715234296
21
-20
31
0
0
LINE
5
155
100
AcDbEntity
8
0
100
AcDbLine
10
345.8917571523429
20
-60
30
0
11
361.5167571523429
21
-60
31
0
0
LINE
5
156
100
AcDbEntity
8
0
100
AcDbLine
10
361.5167571523429
20
-17
30
0
11
371.5167571523429
21
-17
31
0
0
LINE
5
157
100
AcDbEntity
8
0
100
AcDbLine
10
334.14175715234296
20
-60
30
0
11
334.14175715234296
21
-20
31
0
0
LINE
5
158
100
AcDbEntity
8
0
100
AcDbLine
10
311.5167571523429
20
-20
30
0
11
311.5167571523429
21
-17
31
0
0
LINE
5
159
100
AcDbEntity
8
0
100
AcDbLine
10
311.5167571523429
20
-63
30
0
11
321.5167571523429
21
-63
31
0
0
LINE
5
160
100
AcDbEntity
8
0
100
AcDbLine
10
321.5167571523429
20
-60
30
0
11
334.14175715234296
21
-60
31
0
0
LINE
5
161
100
AcDbEntity
8
0
100
AcDbLine
10
311.5167571523429
20
-17
30
0
11
321.5167571523429
21
-17
31
0
0
LINE
5
162
100
AcDbEntity
8
0
100
AcDbLine
10
295.8917571523429
20
-60
30
0
11
295.8917571523429
21
-20
31
0
0
LINE
5
163
100
AcDbEntity
8
0
100
AcDbLine
10
295.8917571523429
20
-20
30
0
11
311.5167571523429
21
-20
31
0
0
LINE
5
164
100
AcDbEntity
8
0
100
AcDbLine
10
321.5167571523429
20
-17
30
0
11
321.5167571523429
21
-20
31
0
0
LINE
5
165
100
AcDbEntity
8
0
100
AcDbLine
10
321.5167571523429
20
-20
30
0
11
334.14175715234296
21
-20
31
0
0
LINE
5
166
100
AcDbEntity
8
0
100
AcDbLine
10
321.5167571523429
20
-63
30
0
11
321.5167571523429
21
-60
31
0
0
LINE
5
167
100
AcDbEntity
8
0
100
AcDbLine
10
295.8917571523429
20
-60
30
0
11
311.5167571523429
21
-60
31
0
0
LINE
5
168
100
AcDbEntity
8
0
100
AcDbLine
10
-58.336309447890159
20
58.336309447890173
30
0
11
-47.287765991850357
21
69.384852903929982
31
0
0
LINE
5
169
100
AcDbEntity
8
0
100
AcDbLine
10
-47.287765991850357
20
69.384852903929982
30
0
11
-45.166445648290718
21
67.263532560370336
31
0
0
LINE
5
170
100
AcDbEntity
8
0
100
AcDbLine
10
-45.166445648290718
20
67.263532560370336
30
0
11
-38.095377836425243
21
74.334600372235812
31
0
0
LINE
5
171
100
AcDbEntity
8
0
100
AcDbLine
10
-38.095377836425243
20
74.334600372235812
30
0
11
-40.216698179984888
21
76.455920715795457
31
0
0
LINE
5
172
100
AcDbEntity
8
0
100
AcDbLine
10
-29.168154723945079
20
87.504464171835252
30
0
11
-40.216698179984888
21
76.455920715795457
31
0
0
LINE
5
173
100
AcDbEntity
8
0
100
AcDbLine
10
-29.168154723945079
20
87.504464171835252
30
0
11
-18.119611267905277
21
76.455920715795443
31
0
0
LINE
5
174
100
AcDbEntity
8
0
100
AcDbLine
10
-18.119611267905277
20
76.455920715795443
30
0
11
-20.240931611464923
21
74.334600372235798
31
0
0
LINE
5
175
100
AcDbEntity
8
0
100
AcDbLine
10
-20.240931611464923
20
74.334600372235798
30
0
11
-13.169863799599447
21
67.263532560370322
31
0
0
LINE
5
176
100
AcDbEntity
8
0
100
AcDbLine
10
-13.169863799599447
20
67.263532560370322
30
0
11
-11.048543456039805
21
69.384852903929968
31
0
0
LINE
5
177
100
AcDbEntity
8
0
100
AcDbLine
10
-11.048543456039805
20
69.384852903929968
30
0
11
0
21
58.336309447890173
31
0
0
LINE
5
178
100
AcDbEntity
8
0
100
AcDbLine
10
29.168154723945079
20
87.504464171835252
30
0
11
40.216698179984888
21
76.455920715795457
31
0
0
LINE
5
179
100
AcDbEntity
8
0
100
AcDbLine
10
38.095377836425243
20
74.334600372235812
30
0
11
40.216698179984888
21
76.455920715795457
31
0
0
LINE
5
180
100
AcDbEntity
8
0
100
AcDbLine
10
30.582368286318179
20
34.82500897343747
30
0
11
23.511300474452703
21
27.753941161571998
31
0
0
LINE
5
181
100
AcDbEntity
8
0
100
AcDbLine
10
13.169863799599447
20
67.263532560370322
30
0
11
11.048543456039805
21
69.384852903929968
31
0
0
LINE
5
182
100
AcDbEntity
8
0
100
AcDbLine
10
29.168154723945079
20
87.504464171835252
30
0
11
18.119611267905277
21
76.455920715795443
31
0
0
LINE
5
183
100
AcDbEntity
8
0
100
AcDbLine
10
47.287765991850357
20
69.384852903929982
30
0
11
45.166445648290718
21
67.263532560370336
31
0
0
LINE
5
184
100
AcDbEntity
8
0
100
AcDbLine
10
23.511300474452703
20
27.753941161571998
30
0
11
25.632620818012349
21
25.632620818012349
31
0
0
LINE
5
185
100
AcDbEntity
8
0
100
AcDbLine
10
20.240931611464923
20
74.334600372235798
30
0
11
13.169863799599447
21
67.263532560370322
31
0
0
LINE
5
186
100
AcDbEntity
8
0
100
AcDbLine
10
45.166445648290718
20
67.263532560370336
30
0
11
38.095377836425243
21
74.334600372235812
31
0
0
LINE
5
187
100
AcDbEntity
8
0
100
AcDbLine
10
58.336309447890159
20
58.336309447890173
30
0
11
32.703688629877817
21
32.703688629877831
31
0
0
LINE
5
188
100
AcDbEntity
8
0
100
AcDbLine
10
58.336309447890159
20
58.336309447890173
30
0
11
47.287765991850357
21
69.384852903929982
31
0
0
LINE
5
189
100
AcDbEntity
8
0
100
AcDbLine
10
32.703688629877817
20
32.703688629877831
30
0
11
30.582368286318179
21
34.82500897343747
31
0
0
LINE
5
190
100
AcDbEntity
8
0
100
AcDbLine
10
18.119611267905277
20
76.455920715795443
30
0
11
20.240931611464923
21
74.334600372235798
31
0
0
LINE
5
191
100
AcDbEntity
8
0
100
AcDbLine
10
25.632620818012349
20
25.632620818012349
30
0
11
0
21
0
31
0
0
LINE
5
192
100
AcDbEntity
8
0
100
AcDbLine
10
11.048543456039805
20
69.384852903929968
30
0
11
0
21
58.336309447890173
31
0
0
LINE
5
193
100
AcDbEntity
8
0
100
AcDbLine
10
100.06228009458638
20
8
30
0
11
100.06228009458638
21
0
31
0
0
LINE
5
194
100
AcDbEntity
8
0
100
AcDbLine
10
100.06228009458638
20
0
30
0
11
110.06228009458638
21
0
31
0
6
DASHED
0
LWPOLYLINE
5
195
100
AcDbEntity
8
0
100
AcDbPolyline
90
6
70
1
43
0.0
10
122.06228009458638
20
0
10
122.06228009458638
20
6.0000000000000009
10
110.06228009458638
20
6.0000000000000009
10
110.06228009458638
20
0
10
110.06228009458638
20
6.0000000000000009
10
122.06228009458638
20
6.0000000000000009
0
LINE
5
196
100
AcDbEntity
8
0
100
AcDbLine
10
122.06228009458638
20
0
30
0
11
136.31228009458638
21
0
31
0
0
LINE
5
197
100
AcDbEntity
8
0
100
AcDbLine
10
110.06228009458638
20
0
30
0
11
100.06228009458638
21
0
31
0
0
ENDSEC
0
SECTION
2
OBJECTS
0
DICTIONARY
5
C
100
AcDbDictionary
3
ACAD_GROUP
350
D
3
ACAD_MLINESTYLE
350
17
0
DICTIONARY
5
D
100
AcDbDictionary
0
DICTIONARY
5
1A
330
C
100
AcDbDictionary
0
DICTIONARY
5
17
100
AcDbDictionary
0
ENDSEC
0
EOF
